<?xml version="1.0" encoding="utf-8"?>
<!-- Generator: Adobe Illustrator 25.3.1, SVG Export Plug-In . SVG Version: 6.00 Build 0)  -->
<svg version="1.1" id="Layer_1" xmlns="http://www.w3.org/2000/svg" xmlns:xlink="http://www.w3.org/1999/xlink" x="0px" y="0px"
	 viewBox="0 0 75.7 75" style="enable-background:new 0 0 75.7 75;" xml:space="preserve">
<style type="text/css">
	.st0{stroke:#000000;stroke-width:2;stroke-miterlimit:10;}
</style>
<path class="st0" d="M73.1,1H2.5C1.7,1,1,1.7,1,2.5v70C1,73.3,1.7,74,2.5,74h70.7c0.8,0,1.5-0.7,1.5-1.5v-70C74.6,1.7,74,1,73.1,1z
	 M4,4h12.2v67H4V4z M71.6,71H19.1V4h52.5V71z"/>
<path class="st0" d="M57.3,37.1H43.6V32c0-0.2-0.1-0.3-0.2-0.4c-0.2-0.1-0.3-0.1-0.5,0l-11.4,6.6c-0.2,0.1-0.2,0.3-0.2,0.4
	s0.1,0.3,0.2,0.4l11.4,6.6c0.1,0,0.2,0.1,0.2,0.1s0.2,0,0.2-0.1c0.2-0.1,0.2-0.3,0.2-0.4v-5.1h13.7c0.8,0,1.5-0.7,1.5-1.5
	S58.1,37.1,57.3,37.1z"/>
</svg>
